# xmcd
#
# Track frame offsets: 
#        150
#        19190
#        42095
#        57255
#        74385
#        83952
#        105325
#        122018
#        131693
#        151541
#        163658
#        187752
#
# Disc length: 2677 seconds
#
# Revision: 0
# Processed by: cddbd v1.5.2PL0 Copyright (c) Steve Scherf et al.
# Submitted via: ExactAudioCopyFreeDBPlugin 1.0
#
DISCID=8e0a730c
DTITLE=Mary Flower - Honey From The Comb
DYEAR=1999
DGENRE=Blues
TTITLE0=Good Love
TTITLE1=Set In My Ways
TTITLE2=Slovak Stomp
TTITLE3=Nine Pound Hammer
TTITLE4=Black Dog Rag
TTITLE5=When I Go
TTITLE6=Bad Juju
TTITLE7=Jesse's Jump
TTITLE8=I Hate That Train Called The M and O
TTITLE9=Crooked
TTITLE10=Big Foot Mama
TTITLE11=Achin' Heart
EXTD=
EXTT0=
EXTT1=
EXTT2=
EXTT3=
EXTT4=
EXTT5=
EXTT6=
EXTT7=
EXTT8=
EXTT9=
EXTT10=
EXTT11=
PLAYORDER=
